<?xml version="1.0" encoding="iso-8859-1"?>
<!-- Uploaded to: SVG Repo, www.svgrepo.com, Generator: SVG Repo Mixer Tools -->
<svg height="800px" width="800px" version="1.1" id="Layer_1" xmlns="http://www.w3.org/2000/svg" xmlns:xlink="http://www.w3.org/1999/xlink" 
	 viewBox="0 0 503.467 503.467" xml:space="preserve">
<g transform="translate(1 1)">
	<path style="fill:#ECF4F7;" d="M97.133,88.6L3.267,327.533h68.267h34.133L199.533,88.6H97.133z M404.333,88.6l-93.867,238.933
		h-102.4L301.933,88.6H404.333z M498.2,112.493v215.04H447h-34.133l84.48-215.04H498.2z"/>
	<path style="fill:#FFE079;" d="M71.533,88.6H3.267v238.933L97.133,88.6H71.533z M429.933,88.6H498.2v23.893h-0.853l-84.48,215.04
		h-102.4L404.333,88.6H429.933z M301.933,88.6l-93.867,238.933h-102.4L199.533,88.6H301.933z"/>
	<path style="fill:#FF7474;" d="M88.6,20.333c0,9.387-7.68,17.067-17.067,17.067s-17.067-7.68-17.067-17.067
		s7.68-17.067,17.067-17.067S88.6,10.947,88.6,20.333z M447,20.333c0,9.387-7.68,17.067-17.067,17.067s-17.067-7.68-17.067-17.067
		s7.68-17.067,17.067-17.067S447,10.947,447,20.333z"/>
</g>
<path style="fill:#51565F;" d="M482.133,503.467H38.4c-2.56,0-4.267-1.707-4.267-4.267c0-2.56,1.707-4.267,4.267-4.267h29.867V332.8
	h-64c-2.56,0-4.267-1.707-4.267-4.267V89.6c0-2.56,1.707-4.267,4.267-4.267H499.2c2.56,0,4.267,1.707,4.267,4.267v238.933
	c0,2.56-1.707,4.267-4.267,4.267h-46.933v162.133h29.867c2.56,0,4.267,1.707,4.267,4.267
	C486.4,501.76,484.693,503.467,482.133,503.467z M76.8,494.933h366.933v-166.4c0-2.56,1.707-4.267,4.267-4.267h46.933v-230.4H8.533
	v230.4h64c2.56,0,4.267,1.707,4.267,4.267V494.933z M413.867,332.8h-307.2c-2.56,0-4.267-1.707-4.267-4.267
	c0-2.56,1.707-4.267,4.267-4.267h307.2c2.56,0,4.267,1.707,4.267,4.267C418.133,331.093,416.427,332.8,413.867,332.8z M320,298.667
	c-0.853,0-0.853,0-1.707,0c-1.707-0.853-2.56-2.56-2.56-4.267c0-0.853,0-0.853,0-1.707L384,122.027
	c0.853-2.56,3.413-3.413,5.12-2.56c1.707,0.853,2.56,2.56,2.56,4.267c0,0.853,0,0.853,0,1.707l-68.267,170.667
	C323.413,297.813,321.707,298.667,320,298.667z M217.6,298.667c-0.853,0-0.853,0-1.707,0c-1.707-0.853-2.56-2.56-2.56-4.267
	c0-0.853,0-0.853,0-1.707L281.6,122.027c0.853-2.56,3.413-3.413,5.12-2.56c1.707,0.853,2.56,2.56,2.56,4.267
	c0,0.853,0,0.853,0,1.707l-68.267,170.667C221.013,297.813,219.307,298.667,217.6,298.667z M115.2,298.667c-0.853,0-0.853,0-1.707,0
	c-1.707-0.853-2.56-2.56-2.56-4.267c0-0.853,0-0.853,0-1.707L179.2,122.027c0.853-2.56,3.413-3.413,5.12-2.56
	c1.707,0.853,2.56,2.56,2.56,4.267c0,0.853,0,0.853,0,1.707l-68.267,170.667C118.613,297.813,116.907,298.667,115.2,298.667z
	 M422.4,298.667c-0.853,0-0.853,0-1.707,0c-1.707-0.853-2.56-2.56-2.56-4.267c0-0.853,0-0.853,0-1.707L460.8,186.88
	c0.853-2.56,3.413-3.413,5.12-2.56c1.707,0.853,2.56,2.56,2.56,4.267c0,0.853,0,0.853,0,1.707l-42.667,105.813
	C425.813,297.813,424.107,298.667,422.4,298.667z M38.4,234.667c-0.853,0-0.853,0-1.707,0c-1.707-0.853-2.56-2.56-2.56-4.267
	c0-0.853,0-0.853,0-1.707L76.8,122.027c0.853-2.56,3.413-3.413,5.12-2.56s2.56,2.56,2.56,4.267c0,0.853,0,0.853,0,1.707
	L41.813,232.107C41.813,233.813,40.107,234.667,38.4,234.667z M430.933,59.733c-2.56,0-4.267-1.707-4.267-4.267V41.813
	c-9.387-1.707-17.067-10.24-17.067-20.48C409.6,9.387,418.987,0,430.933,0c11.947,0,21.333,9.387,21.333,21.333
	c0,10.24-7.68,18.773-17.067,20.48v13.653C435.2,58.027,433.493,59.733,430.933,59.733z M430.933,8.533
	c-6.827,0-12.8,5.973-12.8,12.8s5.973,12.8,12.8,12.8s12.8-5.973,12.8-12.8S437.76,8.533,430.933,8.533z M72.533,59.733
	c-2.56,0-4.267-1.707-4.267-4.267V41.813C58.88,40.107,51.2,31.573,51.2,21.333C51.2,9.387,60.587,0,72.533,0
	s21.333,9.387,21.333,21.333c0,10.24-7.68,18.773-17.067,20.48v13.653C76.8,58.027,75.093,59.733,72.533,59.733z M72.533,8.533
	c-6.827,0-12.8,5.973-12.8,12.8s5.973,12.8,12.8,12.8c6.827,0,12.8-5.973,12.8-12.8S79.36,8.533,72.533,8.533z"/>
</svg>